<svg width="371" height="375" viewBox="0 0 371 375" fill="none" xmlns="http://www.w3.org/2000/svg">
<path fill-rule="evenodd" clip-rule="evenodd" d="M170.879 0.417249C167.881 1.01166 166.126 1.91518 162.16 4.90829C149.941 14.1276 142.701 27.5123 140.896 44.2208C140.603 46.9451 140.494 50.7712 140.656 52.723C140.864 55.2321 140.798 56.272 140.432 56.272C139.442 56.272 134.149 51.6775 129.159 46.4867C126.399 43.615 120.761 37.0687 116.63 31.9393C107.507 20.6098 105.68 18.7208 103.848 18.7208C102.459 18.7208 99.6139 20.7526 94.9094 25.104C93.6501 26.2686 91.3322 28.2061 89.758 29.4091C86.8938 31.5986 86.1273 33.1088 87.5953 33.6721C87.9795 33.8196 90.8766 33.2934 94.0334 32.5025C97.1902 31.7121 99.9486 31.174 100.164 31.3073C100.379 31.4401 101.125 33.042 101.821 34.8664C103.893 40.2935 108.952 49.9002 112.655 55.44C119.424 65.5632 129.898 77.8045 140.802 88.334L147.433 94.7369L145.018 97.3715C141.696 100.995 138.102 106.626 135.216 112.73C130.858 121.947 129.379 127.199 128.806 135.496C128.521 139.619 128.569 139.966 129.72 142.121C130.388 143.372 132.307 146.107 133.985 148.199L137.036 152.003L138.583 150.275C140.512 148.12 143.219 143.981 143.217 143.189C143.216 142.862 142.194 141.058 140.944 139.181C137.297 133.7 137.316 133.835 139.581 129.682C142.456 124.409 148.732 115.012 151.241 112.225C153.416 109.807 157.416 107.116 158.845 107.108C160.559 107.098 160.718 108.272 159.413 111.299C158.412 113.622 158.155 114.934 158.131 117.865C158.103 121.139 158.25 121.797 159.512 124.048C161.09 126.861 164.093 129.21 167.173 130.04C170.098 130.827 175.125 130.393 177.716 129.129C180.239 127.898 182.347 125.301 183.108 122.489C183.836 119.795 183.395 114.579 182.252 112.37C180.544 109.07 176.76 106.275 172.982 105.522C170.312 104.991 169.872 104.807 169.604 104.11C168.818 102.061 172.018 100.59 177.332 100.557C183.414 100.519 188.067 102.314 196.093 107.793L200.456 110.773L202.277 109.454C203.278 108.728 205.236 107.672 206.627 107.108C208.018 106.544 209.156 105.837 209.156 105.539C209.156 105.241 208.101 103.668 206.811 102.043C199.85 93.2761 192.37 87.795 183.766 85.1563C180.287 84.0888 173.697 83.2874 171.124 83.6185L169.497 83.8278L167.142 75.8889C162.154 59.0682 161.37 54.5639 161.341 42.5338C161.317 32.4293 161.865 28.8871 164.603 21.4684C167.088 14.7357 172.125 6.29357 176.231 1.98387C176.962 1.21636 177.561 0.443812 177.561 0.266588C177.561 -0.153803 173.271 -0.0571793 170.879 0.417249ZM202.483 3.82159C199.213 4.41554 195.311 5.8773 194.804 6.69839C194.652 6.94385 196.471 8.51276 198.846 10.1852C201.221 11.8571 205.183 14.9459 207.649 17.0483C213.126 21.7184 217.646 24.7935 221.029 26.1509C223.188 27.0173 224.46 27.1757 229.304 27.1835C234.697 27.1922 235.345 27.091 240.522 25.4324C243.544 24.4643 247.623 23.041 249.585 22.2689C255.246 20.0428 255.389 21.7015 249.947 26.4352C246.822 29.1541 244.297 32.7695 242.942 36.4665C241.664 39.9533 241.567 48.1958 242.752 52.6085C243.607 55.7898 247.012 63.1412 247.631 63.1412C247.835 63.1412 248.42 62.4712 248.929 61.6529C249.438 60.8345 251.401 58.8681 253.291 57.2832C257.015 54.1609 259.773 50.4433 261.435 46.3054C262.341 44.05 262.49 42.8699 262.487 37.9543C262.484 31.4374 261.921 28.9993 259.025 22.9636C257.719 20.2407 256.843 18.9992 255.875 18.4987C253.962 17.509 253.339 17.6112 250.436 19.3916C244.533 23.0117 238.814 23.2393 228.854 20.2498C224.455 18.9296 221.101 17.3309 216.371 14.2989C214.576 13.1481 211.891 11.532 210.403 10.7077C208.916 9.88338 207.901 9.08473 208.147 8.93223C208.855 8.4949 215.085 9.43322 217.856 10.3949C219.241 10.8753 222.847 12.5037 225.869 14.0136C232.935 17.5438 235.582 18.3942 239.43 18.37C243.585 18.3439 244.129 17.9134 241.623 16.6344C240.514 16.0684 237.649 14.1363 235.256 12.3412C227.876 6.80326 222.482 4.6839 213.111 3.63888C207.804 3.04676 206.638 3.0669 202.483 3.82159ZM178.264 11.2792C177.392 13.5245 177.454 18.2033 178.395 21.304C180.111 26.9532 183.331 30.5476 189.396 33.5833C194.451 36.1139 197.978 36.7156 208.011 36.76C213.048 36.7825 217.581 36.6286 218.085 36.4189C218.771 36.1331 217.276 35.5987 212.132 34.2917C195.99 30.1899 185.455 24.7812 182.563 19.1105C181.722 17.4628 181.387 15.5152 181.943 15.5152C182.087 15.5152 183.478 16.4196 185.034 17.5251C193.582 23.5965 201.169 27.4546 210.985 30.7216C217.45 32.873 218.54 33.1015 223.166 33.2769C228.224 33.4683 233.425 32.8052 233.425 31.9686C233.425 31.7346 231.901 31.5431 230.039 31.5431C224.116 31.5431 219.621 29.7315 209.642 23.3222C199.807 17.0053 192.604 13.7356 183.854 11.6153C178.266 10.2616 178.65 10.2845 178.264 11.2792ZM254.688 26.8492C253.89 28.3952 253.8 29.5951 253.787 38.8702C253.78 44.5373 253.598 49.9982 253.383 51.0057L252.993 52.8375L254.661 51.2544C257.96 48.1248 258.187 47.1049 257.885 36.7788C257.549 25.2588 256.765 22.8239 254.688 26.8492ZM273.744 32.2008C272.972 33.1313 273.554 34.0458 278.06 38.993L281.887 43.1923L277.136 47.6948C262.752 61.3268 251.499 80.8315 244.617 104.057L243.416 108.107L239.68 107.72C234.004 107.132 218.604 107.272 214.226 107.952C203.543 109.611 200.334 112.7 192.402 128.958L187.66 138.677L184.333 140.353C180.742 142.161 172.655 146.75 171.722 147.507C171.408 147.763 171.15 148.284 171.15 148.664C171.15 149.238 171.73 149.318 174.584 149.135C176.473 149.013 178.019 149.093 178.019 149.312C178.019 149.532 177.091 151.557 175.958 153.814C173.826 158.06 173.556 159.044 174.384 159.556C175.03 159.955 176.149 158.893 178.539 155.612C179.626 154.119 180.674 152.898 180.87 152.898C181.531 152.898 181.228 154.944 180.036 158.522C177.863 165.05 180.108 165.187 183.665 158.742C184.463 157.297 185.27 156.112 185.46 156.109C185.994 156.1 185.857 157.923 185.116 160.683C184.267 163.846 184.258 164.804 185.075 164.804C186.048 164.804 187.681 162.61 189.44 158.937C190.307 157.127 191.183 155.646 191.386 155.646C191.589 155.646 191.756 157.5 191.756 159.767C191.756 163.186 191.877 163.889 192.466 163.889C193.586 163.889 194.341 161.379 195.15 154.959C196.543 143.9 196.645 143.528 199.095 140.657C202.847 136.26 205.774 130.755 210.558 119.099C210.796 118.518 211.16 118.147 211.366 118.274C211.572 118.402 214.823 118.814 218.589 119.191C226.754 120.008 229.111 120.497 232.025 121.974C234.255 123.104 236.63 125.462 236.63 126.545C236.63 127.962 235.313 128.34 232.107 127.844C226.63 126.996 221.759 128.387 218.385 131.762C215.59 134.557 214.905 136.143 214.895 139.847C214.888 142.55 215.098 143.436 216.239 145.501C217.876 148.464 221.389 151.735 224.496 153.19C229.114 155.353 234.576 154.138 238.183 150.145C240.494 147.586 241.59 145.175 242.174 141.358C242.868 136.818 243.25 135.954 244.565 135.954C246.124 135.954 248.533 137.888 254.259 143.737C261.801 151.441 265.938 154.721 267.403 154.158C268.456 153.754 269.599 149.413 269.599 145.82C269.599 141.499 268.294 136.522 265.923 131.806L264.013 128.007L268.424 123.913C270.85 121.662 276.568 115.605 281.132 110.454C291.277 99.0031 299.821 91.1604 299.821 93.299C299.821 93.7908 304.463 97.0509 306.971 98.3208C312.261 100.998 315.557 100.643 322.755 96.6186C325.378 95.1518 327.606 94.0221 327.706 94.1077C327.805 94.1933 327.227 95.6052 326.419 97.2455C324.198 101.757 322.809 102.399 311.043 104.347C307.198 104.984 303.926 106.671 301.866 109.077C300.183 111.044 296.848 117.105 297.235 117.493C297.37 117.629 298.472 117.524 299.681 117.26C300.891 116.997 304.251 116.673 307.147 116.541C313.054 116.271 316.416 115.344 319.718 113.072C322.63 111.069 323.854 109.258 326.363 103.248C328.538 98.04 330.734 93.8233 331.272 93.8233C331.424 93.8233 331.434 95.9358 331.295 98.5172C330.988 104.229 329.452 109.413 326.891 113.375C324.927 116.414 323.771 117.406 318.449 120.619C309.769 125.859 305.823 132.813 306.343 141.953C306.674 147.781 306.833 147.899 310.346 144.925C315.192 140.822 316.974 137.966 319.511 130.23C321.36 124.592 322.877 121.555 325.917 117.407C328.966 113.246 331.629 107.745 332.801 103.186C334.656 95.9692 334.423 86.8406 332.296 83.3415C331.105 81.3829 330.584 81.8463 330.851 84.626C331.126 87.4863 330.762 88.9641 329.492 90.1469C328.235 91.3188 326.909 91.3092 323.174 90.1016C319.277 88.8418 313.588 88.8601 306.983 90.1543C304.248 90.6896 301.906 91.0244 301.78 90.898C301.402 90.5206 309.795 85.1911 314.474 82.8377C319.513 80.3026 325.501 78.1044 329.519 77.3136C331.066 77.0095 332.332 76.5754 332.332 76.3501C332.332 75.5798 328.303 71.9076 326.308 70.8603C324.563 69.9444 323.734 69.8267 319.575 69.9077C304.935 70.1917 290.027 76.4375 278.372 87.1708C276.272 89.1051 274.452 90.5861 274.327 90.462C274.02 90.1538 275.774 83.782 277.247 79.8561C278.569 76.334 282.585 67.3497 289.71 51.9743C292.265 46.462 294.297 41.9032 294.226 41.8432C294.155 41.7837 291.727 40.6035 288.831 39.221C285.935 37.8385 281.618 35.5451 279.238 34.125C276.859 32.7049 274.772 31.5431 274.601 31.5431C274.43 31.5431 274.045 31.839 273.744 32.2008ZM234.979 33.6872C229.587 37.7451 221.529 44.263 219.001 46.6122C213.199 52.0036 209.286 58.1849 206.588 66.2213C205.553 69.3051 205.419 70.3584 205.572 74.1803C205.731 78.1452 205.917 78.9255 207.434 81.9951C208.361 83.8708 209.538 85.7841 210.049 86.2467C210.961 87.0719 211.024 87.0467 213.387 84.9099C223.779 75.513 230.124 63.9998 234.809 46.0457C235.798 42.2544 236.531 39.0758 236.437 38.9829C236.197 38.7429 230.318 47.3435 224.461 56.501C218.677 65.5463 215.654 71.2294 214.161 75.8637C213.576 77.6818 212.955 79.1692 212.783 79.1692C211.752 79.1692 211.643 73.6922 212.593 69.6641C214.674 60.8341 220.024 52.4327 232.051 39.1084C234.947 35.8996 237.482 32.988 237.683 32.6376C238.312 31.545 237.308 31.9347 234.979 33.6872ZM182.598 42.7701C181.213 43.1099 178.972 43.8792 177.619 44.48L175.159 45.5722L177.645 47.6971C183.741 52.9052 189.002 54.9898 196.106 55.0113C203.391 55.0338 208.626 53.4181 213.151 49.7514L215.543 47.8134L211.777 47.2593C209.706 46.9547 205.126 45.8877 201.601 44.8881C191.146 41.9242 187.639 41.5332 182.598 42.7701ZM81.4013 51.5525C80.7716 51.6583 78.1277 52.2486 75.5264 52.8636C69.8031 54.2173 65.4411 54.2809 60.813 53.0793C58.9338 52.5911 57.3037 52.2843 57.191 52.3974C56.4776 53.1109 63.212 57.1879 68.1221 59.0151C69.0035 59.343 73.6087 61.3465 78.3553 63.4672C91.3167 69.2579 94.3123 69.8244 101.763 67.8937C103.267 67.5045 105.193 67.2672 106.045 67.3666C107.577 67.5457 107.591 67.5305 107.34 65.9841C106.949 63.5726 104.583 58.8814 102.715 56.8142C99.1363 52.8526 94.4657 51.1976 87.1434 51.297C84.6148 51.3313 82.0309 51.4462 81.4013 51.5525ZM74.6238 57.1815C73.7928 57.3784 72.9978 57.6546 72.8573 57.7947C72.4648 58.1876 75.7375 59.4378 79.7986 60.4471C83.9229 61.4724 94.6804 62.1882 94.6804 61.4372C94.6804 60.8309 88.8957 58.2554 85.6144 57.4004C82.899 56.6933 77.1684 56.5789 74.6238 57.1815ZM201.016 58.9899C193.126 60.9284 187.883 64.8365 183.553 72.0056C182.247 74.1684 180.982 76.0588 180.743 76.2067C178.504 77.5906 185.244 77.7633 189.552 76.4325C195.079 74.7253 198.138 71.8068 202.284 64.286C203.117 62.7748 204.283 60.8826 204.875 60.0807C205.467 59.2789 205.951 58.5059 205.951 58.3635C205.951 57.9426 204.56 58.1189 201.016 58.9899ZM50.127 60.3028C45.8749 63.6925 40.3814 70.5782 37.4797 76.1545C36.4426 78.1484 34.6893 80.7468 33.5844 81.9283C29.9729 85.7892 27.8999 91.4177 27.5167 98.4027C27.0863 106.245 29.3923 113.043 35.0794 120.698C37.5631 124.041 43.9073 130.423 45.7023 131.384C46.4216 131.769 46.4606 131.644 46.1029 130.104C45.4976 127.499 45.6244 121.556 46.3887 116.72C48.5628 102.959 47.3274 92.2237 42.9365 86.7252C39.0338 81.8376 38.2769 80.4418 38.5146 78.5706C38.6364 77.6117 39.424 75.6613 40.2642 74.2357C41.8284 71.5843 50.5478 62.2225 51.4522 62.2244C51.7887 62.2248 52.0497 65.2015 52.2457 71.2697C52.5639 81.1223 53.1702 86.4019 55.1515 96.571L56.4456 103.211L56.6745 96.8224L56.9035 90.4336L59.3473 96.9094C63.7597 108.602 69.8269 119.945 77.3255 130.523L80.6805 135.255L81.5579 132.514C82.6861 128.988 83.0703 121.974 82.3198 118.598C81.0945 113.087 78.7175 110.073 72.2432 105.82C70.1025 104.413 66.9535 101.875 65.2455 100.178C61.6029 96.5609 59.7338 92.907 57.8779 85.7777C56.6649 81.1182 55.5623 71.1034 55.8393 67.2627L55.9877 65.2019L56.9589 67.0337C57.4928 68.0412 58.6989 71.2353 59.6395 74.1318C60.5795 77.0283 61.667 80.0164 62.0558 80.772C62.4446 81.5276 64.8495 84.3096 67.4004 86.9542C69.9514 89.5988 72.3687 92.2778 72.7716 92.9074L73.5047 94.0523L74.2703 92.2242C75.4641 89.3749 75.9948 86.4422 75.6894 84.3805C75.2168 81.1873 73.1764 78.6682 67.1522 73.8392C61.4211 69.2446 59.2557 66.8904 55.9877 61.7C54.8667 59.9195 53.8007 58.744 53.2403 58.6707C52.7292 58.6039 51.3528 59.3256 50.127 60.3028ZM79.5696 70.6006C79.5696 70.7274 80.3192 72.4095 81.2355 74.3388C83.7595 79.655 83.8341 82.5818 81.6274 89.7105C80.0564 94.7859 79.9254 95.6107 80.148 99.0164C80.5628 105.362 83.672 112.01 89.9008 119.868L92.9404 123.703L93.9995 121.837C94.582 120.812 95.9767 118.674 97.0991 117.087C99.7929 113.278 100.333 111.46 100.078 107.058C99.8881 103.771 99.634 102.998 97.0482 97.8454C95.4959 94.7516 93.8017 91.7053 93.2838 91.0757L92.3415 89.9308L92.7046 96.113C93.1593 103.861 93.1007 106.119 92.4275 106.792C91.7682 107.452 91.3982 106.931 90.0446 103.44C89.2561 101.406 88.9969 99.3795 88.6993 92.9074C88.3151 84.5706 87.7024 81.2583 85.755 76.9939C85.1515 75.6719 84.7655 74.5897 84.8978 74.5897C85.0301 74.5897 87.8563 77.2243 91.1784 80.4441C95.8027 84.926 98.5044 87.1094 102.704 89.7591C109.247 93.887 114.339 96.7546 114.623 96.4702C115.081 96.0127 112.89 88.7969 111.323 85.6023C108.62 80.0896 104.284 76.4687 98.8015 75.1439C97.6682 74.87 94.8141 74.3145 92.4587 73.9088C88.9461 73.3043 83.1472 71.7432 80.1745 70.6024C79.8421 70.4747 79.5696 70.4737 79.5696 70.6006ZM35.4013 86.4079C35.2401 87.1415 35.3253 89.471 35.5909 91.584C35.9334 94.3151 35.9274 96.8178 35.5694 100.239C34.9361 106.294 35.4219 109.244 37.8717 114.224C39.7669 118.076 41.5638 120.326 41.5638 118.847C41.5638 118.428 41.2254 116.077 40.8114 113.624C40.3013 110.601 40.0801 106.797 40.1246 101.819C40.1946 93.9145 39.6662 90.6447 37.7664 87.2335C36.4961 84.9525 35.7763 84.7011 35.4013 86.4079ZM98.3496 93.2509C101.106 98.198 105.737 104.842 108.109 107.251C109.412 108.574 112.23 110.866 114.37 112.344C116.511 113.822 119.12 115.849 120.169 116.848L122.074 118.664L122.403 116.039C123.168 109.913 121.521 104.471 117.985 101.444C116.982 100.585 113.852 98.8992 111.03 97.6975C104.487 94.9109 100.775 93.0618 98.9874 91.6985C98.2081 91.104 97.4155 90.6177 97.2264 90.6177C97.0372 90.6177 97.5428 91.8024 98.3496 93.2509ZM337.838 102.639C337.854 106.65 338.48 109.002 340.793 113.744C344.364 121.061 348.637 124.826 353.915 125.305L356.725 125.56L356.4 123.315C355.833 119.415 352.945 111.457 351.033 108.532C350.028 106.994 348.345 105.037 347.294 104.183C345.016 102.334 340.061 99.7766 338.756 99.7766C337.92 99.7766 337.827 100.065 337.838 102.639ZM17.6219 106.76C16.1644 108.744 14.9651 111.721 12.9865 118.267C11.0684 124.611 10.9869 125.421 12.2672 125.421C12.911 125.421 13.8314 124.434 15.293 122.174C16.451 120.383 17.5688 119.101 17.784 119.316C17.9987 119.531 18.5931 121.867 19.105 124.508C20.6111 132.278 23.5792 137.539 32.7468 148.694C37.2544 154.178 43.2305 159.577 49.2217 163.576C52.4018 165.699 53.2503 166.467 52.656 166.683C48.076 168.352 24.2642 168.775 12.8217 167.391C9.22761 166.956 6.00535 166.492 5.66101 166.36C5.31621 166.228 4.78367 165.225 4.47733 164.131C3.74881 161.528 2.37601 159.309 1.49409 159.309C0.0645237 159.309 -0.249596 161.282 0.17488 167.596L0.581497 173.638L2.64206 174.183C3.77537 174.482 7.17529 175.777 10.1974 177.06C17.4694 180.149 25.147 182.43 33.2963 183.924C39.3182 185.028 41.0436 185.148 51.1797 185.165C60.281 185.179 63.1731 185.025 66.5029 184.348C71.8535 183.26 78.511 181.112 82.5364 179.175L85.7513 177.627L86.4382 178.637C86.8159 179.193 88.7533 181.511 90.7438 183.789C92.7339 186.067 94.4199 188.002 94.4904 188.09C94.5609 188.179 95.1548 187.193 95.8096 185.9C96.4649 184.607 97.7149 182.433 98.5882 181.068C100.442 178.169 100.465 178.031 99.2594 176.94C98.089 175.881 98.1005 174.694 99.3002 172.752C100.864 170.221 101.845 169.964 103.566 171.631C104.369 172.41 105.328 173.047 105.695 173.047C106.769 173.047 125.105 160.982 125.261 160.172C125.478 159.047 122.572 155.544 120.446 154.368C114.467 151.061 107.098 153.777 103.443 160.635C102.633 162.155 101.776 163.519 101.54 163.665C100.672 164.202 99.2594 162.959 99.2594 161.658C99.2594 159.68 100.96 154.925 103.293 150.379C106.512 144.109 110.392 140.492 119.507 135.267C125.092 132.066 126.701 130.934 126.715 130.199C126.725 129.678 127.141 127.72 127.638 125.848C128.137 123.977 128.549 122.301 128.554 122.126C128.585 121.228 117.013 125.685 109.499 129.465C104.251 132.105 97.6806 136.359 94.5559 139.141C90.486 142.765 86.3269 149.166 84.6176 154.438C84.0832 156.084 83.944 156.19 82.5941 155.971C77.5879 155.159 61.8438 147.826 54.1405 142.719C45.0484 136.691 34.8733 127.659 28.7974 120.222C25.9204 116.701 21.6816 110.37 20.0904 107.218C19.5501 106.148 19.0194 105.272 18.9118 105.272C18.8037 105.272 18.2231 105.941 17.6219 106.76ZM54.6323 112.913C52.4582 120.798 51.9737 124.534 52.5736 128.782C53.3222 134.082 55.8389 138.727 60.7416 143.854C62.8191 146.026 64.001 146.587 64.001 145.4C64.001 145.055 65.0619 143.149 66.3592 141.164C67.6559 139.18 68.9953 136.894 69.3355 136.083C70.3209 133.734 70.1016 128.81 68.8785 125.837C67.8272 123.281 61.8113 113.057 61.3589 113.057C60.8497 113.057 61.6963 122.217 62.6057 126.552C63.6429 131.495 63.5889 132.29 62.2165 132.29C60.3822 132.29 57.5922 122.375 57.5862 115.833C57.5816 110.89 57.1645 106.646 56.6828 106.646C56.5051 106.646 55.5824 109.466 54.6323 112.913ZM333.705 114.455C333.705 115.224 332.961 118.058 332.051 120.752L330.395 125.65L330.67 133.206C330.885 139.108 330.794 141.404 330.255 143.691C329.875 145.302 329.62 146.674 329.689 146.741C330.046 147.092 339.749 139.396 340.305 138.32C341.416 136.172 342.451 131.428 342.506 128.238C342.57 124.51 341.882 123.037 338.258 119.149C336.804 117.588 335.349 115.579 335.026 114.684C334.303 112.687 333.705 112.583 333.705 114.455ZM301.652 121.556C296.904 122.58 292.55 124.985 289.457 128.291C287.383 130.51 286.057 132.623 283.641 137.566C281.92 141.087 280.107 144.404 279.612 144.937L278.713 145.906L280.166 146.196C280.965 146.356 283.351 146.487 285.469 146.487C291.605 146.487 297.226 144.154 300.906 140.081C302.898 137.876 304.141 136 303.821 135.681C303.687 135.546 302.27 136.096 300.674 136.902C294.082 140.229 289.747 141.335 289.747 139.689C289.747 138.488 290.68 137.812 296.553 134.763C299.869 133.041 302.774 131.126 304.566 129.481C307.486 126.8 310.655 122.16 310.138 121.324C309.728 120.66 305.24 120.783 301.652 121.556ZM346.74 129.389C346.727 132.716 346.535 133.795 345.661 135.459C344.408 137.843 340.73 141.559 338.759 142.432C337.994 142.77 337.378 143.151 337.389 143.278C337.429 143.738 347.941 150.858 349.844 151.714C351.612 152.51 358.89 153.371 358.89 152.785C358.89 152.659 358.568 151.653 358.173 150.551C357.779 149.449 356.746 145.868 355.878 142.594C353.991 135.477 351.83 130.851 348.911 127.681L346.756 125.342L346.74 129.389ZM148.366 140.19C147.132 141.727 141.728 149.917 139.592 153.487C138.268 155.7 136.631 157.919 135.954 158.42C135.277 158.92 132.736 160.225 130.306 161.319C121.742 165.176 108.289 174.027 103.129 179.2C97.594 184.748 94.2431 192.495 93.8731 200.597C93.5934 206.726 94.5508 210.253 97.877 215.349C99.1408 217.286 100.175 219.063 100.175 219.298C100.175 221.029 83.1811 238.729 75.9064 244.575C58.1394 258.853 38.2559 266.926 20.8556 266.926C19.149 266.926 17.7528 267.12 17.7528 267.357C17.7528 268.038 19.5849 271.042 21.7059 273.837C23.6314 276.376 23.6781 276.404 26.9942 276.951C28.8341 277.255 32.6296 277.626 35.4283 277.777C50.3802 278.578 68.6468 273.334 80.8289 264.742C82.4031 263.632 83.6908 262.937 83.6908 263.198C83.6908 264.182 75.6189 276.965 63.158 295.716C56.066 306.387 50.2639 315.258 50.2639 315.428C50.2639 315.598 51.2429 316.485 52.4389 317.4C54.8603 319.251 62.3649 326.891 65.0541 330.243C67.0066 332.676 68.58 333.139 68.58 331.281C68.58 330.659 67.335 327.336 65.8133 323.896C64.2917 320.457 63.1071 317.602 63.1804 317.552C63.2541 317.503 64.2414 316.932 65.3747 316.283C73.0977 311.863 89.2465 296.185 99.7054 282.954C110.817 268.897 119.822 253.293 122.825 242.89C124.31 237.747 124.251 237.798 129.141 237.477C133.886 237.165 142.345 235.495 146.771 233.996C157.953 230.209 173.742 219.026 182.243 208.873C185.65 204.803 193.479 199.321 200.799 195.879C203.381 194.665 205.493 193.461 205.493 193.203C205.493 192.896 204.148 192.837 201.601 193.033C199.46 193.197 197.708 193.211 197.708 193.062C197.708 192.914 198.758 191.595 200.041 190.132C202.655 187.153 203.984 184.954 203.171 184.954C202.888 184.954 201.358 186.139 199.772 187.587C196.708 190.383 194.045 192.169 194.045 191.426C194.045 191.18 195.591 189.174 197.479 186.969C201.581 182.181 202.068 180.434 198.281 184.09C194.996 187.261 191.8 189.73 191.442 189.372C191.292 189.222 191.456 188.71 191.806 188.233C195.778 182.823 197.251 180.553 197.251 179.845C197.251 179.38 197.068 179.001 196.844 179.001C196.434 179.001 188.19 187.827 185.484 191.163L184.019 192.968L183.996 188.244C183.973 183.76 183.541 181.748 182.602 181.748C182.371 181.748 182.047 182.521 181.882 183.466C181.718 184.41 180.884 187.982 180.03 191.403C179.176 194.823 178.477 197.918 178.477 198.279C178.477 200.593 171.579 206.971 162.238 213.297C152.594 219.827 147.294 222.026 140.313 222.394C134.71 222.69 131.25 222.008 129.948 220.352C128.006 217.883 129.105 216.789 133.908 216.411C138.768 216.029 141.398 215.032 144.201 212.512C148.677 208.487 149.931 203.149 147.532 198.335C146.145 195.551 144.368 193.932 140.996 192.382C138.864 191.402 138.06 191.281 134.809 191.451C129.084 191.752 125.513 193.985 122.955 198.868C122.139 200.423 121.963 201.555 121.946 205.332L121.926 209.912L120.697 210.054C119.001 210.25 117.203 209.221 113.913 206.175C110.274 202.806 109.146 200.656 109.145 197.089C109.143 191.867 112.868 186.613 121.386 179.824C126.588 175.676 137.269 168.019 145.508 162.531C151.417 158.593 158.833 151.772 159.35 149.799C159.702 148.451 159.198 148.507 157.836 149.965C156.578 151.312 152.912 153.586 152.562 153.237C152.436 153.11 153.476 151.696 154.873 150.093C157.12 147.517 157.954 146.029 157.152 146.029C157.008 146.029 155.926 146.828 154.748 147.806C149.997 151.745 148.662 151.383 152.745 147.263C154.305 145.689 155.581 144.252 155.581 144.07C155.581 143.275 154.144 143.896 151.047 146.029C149.219 147.288 147.534 148.318 147.303 148.318C146.536 148.318 146.862 147.093 148.475 143.908C150.219 140.467 150.413 139.618 149.456 139.618C149.109 139.618 148.619 139.875 148.366 140.19ZM255.892 157.133C254.867 163.633 254.132 166.236 253.149 166.844C252.865 167.02 250.525 167.456 247.951 167.814C241.689 168.683 237.718 169.925 232.558 172.627L228.256 174.879H220.595C212.286 174.879 210.072 175.126 210.072 176.051C210.072 176.823 210.9 177.044 215.223 177.423C217.175 177.594 218.772 177.886 218.772 178.071C218.772 178.455 213.441 180.93 210.88 181.735C209.157 182.277 208.374 182.951 208.88 183.457C209.031 183.607 210.803 183.354 212.819 182.893C214.835 182.432 216.608 182.179 216.758 182.329C217.078 182.649 213.357 184.581 210.873 185.385C208.75 186.072 208.564 187.244 210.578 187.244C211.36 187.244 213.238 186.923 214.75 186.531C216.262 186.139 217.609 185.928 217.743 186.062C218.175 186.494 216.993 187.538 215.111 188.387C214.103 188.842 213.277 189.377 213.277 189.576C213.277 190.403 214.234 190.386 216.766 189.515C220.813 188.122 221.115 188.513 218.167 191.328C215.443 193.927 215.075 194.571 216.312 194.571C217.756 194.571 221.827 191.827 225.886 188.117C231.029 183.419 231.147 183.348 235.027 182.645C239.301 181.871 245.09 179.966 250.776 177.464C258.821 173.923 260.411 172.576 263.311 166.842C264.335 164.819 266.394 158.87 266.394 157.936C266.394 157.601 257.537 150.608 257.113 150.608C257.008 150.608 256.458 153.545 255.892 157.133ZM325.921 157.727C307.052 159.703 291.484 164.239 282.567 170.36C281.514 171.082 280.471 171.674 280.248 171.674C280.026 171.674 277.281 168.892 274.149 165.493C271.017 162.093 268.351 159.314 268.225 159.316C268.021 159.319 265.473 165.566 265.105 166.969C265.023 167.278 265.463 168.205 266.082 169.03C269.01 172.931 270.4 177.559 269.05 178.909C268.173 179.786 267.628 179.525 266.165 177.525C265.409 176.492 264.255 175.251 263.601 174.767L262.41 173.887L259.937 175.466C256.376 177.741 251.059 180.351 247.62 181.511L244.643 182.515L244.502 184.435C244.404 185.768 244.727 187.158 245.558 188.975C247.787 193.849 250.796 195.924 255.633 195.924C260.19 195.924 264.221 193.634 266.835 189.559C268.51 186.948 269.629 186.623 270.798 188.407C272.617 191.183 269.863 201.748 265.284 209.562C262.876 213.67 259.854 216.752 255.277 219.768C250.892 222.657 248.544 223.462 247.364 222.483C245.507 220.942 247.498 219.005 253.469 216.543C257.046 215.068 258.05 214.466 257.632 214.047C257.505 213.921 256.238 214.062 254.815 214.36C253.393 214.659 252.081 214.755 251.901 214.575C251.72 214.394 253.001 212.933 254.747 211.328C256.494 209.723 257.758 208.24 257.557 208.032C257.356 207.824 256.841 207.904 256.412 208.208C254.804 209.35 251.039 211.506 250.644 211.51C250.419 211.513 251.604 210.26 253.277 208.726C257.702 204.672 257.388 203.841 252.601 206.935C248.159 209.806 247.743 209.154 251.294 204.883C252.547 203.376 253.573 201.985 253.573 201.792C253.573 200.589 251.316 201.951 247.759 205.3L243.658 209.161L242.828 207.704C241.704 205.734 239.417 203.334 237.912 202.546C236.135 201.614 232.049 201.735 229.584 202.791C226.257 204.218 223.463 207.097 222.632 209.956C221.185 214.934 223.666 220.958 228.651 224.57C230.018 225.56 231.135 226.438 231.135 226.521C231.135 227.956 222.958 236.341 215.567 242.485C202.851 253.056 197.255 256.025 194.147 253.848C192.667 252.811 192.881 251.696 195.156 248.605C197.836 244.964 198.319 243.34 198.07 238.819C197.826 234.398 196.489 231.363 193.655 228.803C190.727 226.158 187.162 225.543 182.602 226.897C176.299 228.768 173.017 232.921 172.621 239.524C172.258 245.573 174.013 248.925 179.403 252.476C181.121 253.608 182.664 254.755 182.831 255.025C183.356 255.876 181.75 257.717 179.499 258.845C173.985 261.608 167.073 261.685 160.53 259.058C156.485 257.433 150.055 253.641 147.131 251.154C145.623 249.872 145.345 249.228 143.864 243.571C142.974 240.17 142.066 237.206 141.847 236.984C141.627 236.762 141.103 236.712 140.68 236.874C140.077 237.106 139.977 237.512 140.212 238.767C140.559 240.614 140.331 240.695 138.285 239.447C136.815 238.551 134.952 238.252 134.384 238.82C134.226 238.978 134.403 239.7 134.777 240.423C135.631 242.074 134.977 242.136 132.956 240.594C131.478 239.466 129.023 239.028 129.023 239.891C129.023 240.134 129.663 241.061 130.444 241.952C132.11 243.849 131.433 244.039 128.794 242.414C127.787 241.793 126.705 241.284 126.39 241.283C125.08 241.278 125.962 243.148 128.126 244.96C129.395 246.022 130.34 246.985 130.226 247.099C130.112 247.213 128.89 246.95 127.51 246.515C124.942 245.705 123.524 245.835 123.534 246.876C123.537 247.199 125.336 248.39 127.531 249.524C131.858 251.758 134.566 254.172 137.566 258.473C140.83 263.154 145.786 268.55 149.691 271.674C157.084 277.59 164.299 280.017 173.341 279.631C178.031 279.43 178.55 279.488 178.962 280.257C179.672 281.584 180.428 298.062 180.104 305.164C179.004 329.301 172.126 354.301 162.496 369.169C160.96 371.54 159.703 373.6 159.703 373.744C159.703 374.215 164.255 375 166.983 375C170.257 375 171.583 374.125 177.002 368.391C187.296 357.496 194.385 345.153 199.046 330.011C200.231 326.158 200.922 323.063 202.168 316.017C202.36 314.933 202.716 314.033 202.96 314.015C203.916 313.946 210.699 327.542 215.238 338.629C216.381 341.419 218.797 347.807 220.608 352.825C224.543 363.731 226.654 368.332 228.186 369.335C229.828 370.411 231.627 369.97 238.344 366.845C241.557 365.351 245.165 363.775 246.361 363.344C248.618 362.53 249.017 361.809 247.853 360.645C246.936 359.727 245.051 359.357 239.606 359.023L235.027 358.743L234.708 354.256C234.532 351.788 234.061 347.976 233.661 345.784C228.798 319.125 219.949 294.486 208.3 275.169C207.009 273.028 205.952 270.833 205.952 270.292C205.951 269.618 207.502 267.925 210.873 264.919C218.111 258.465 224.041 251.94 234.647 238.762C241.495 230.252 242.133 229.631 243.215 230.423C243.963 230.97 243.9 231.188 242.317 233.513C239.952 236.987 233.858 244.767 230.105 249.102L226.966 252.729H231.094C237.22 252.729 242.196 250.908 247.858 246.592C249.628 245.243 268.273 262.464 277.335 273.819C284.404 282.674 290.919 293.402 296.064 304.651C299.363 311.866 303.076 322.664 303.994 327.717C304.327 329.543 304.744 331.038 304.921 331.038C305.573 331.038 308.4 327.319 309.701 324.751C310.918 322.348 311.031 321.733 310.945 317.986C310.582 302.065 304.657 284.979 293.16 266.697C291.575 264.178 290.431 262.061 290.617 261.992C291.05 261.832 298.912 265.316 304.973 268.354C307.554 269.648 316.309 274.699 324.429 279.578C332.548 284.457 339.588 288.449 340.073 288.449C341.623 288.449 344.894 283.324 348.763 274.838C351.268 269.343 351.723 266.926 350.252 266.926C349.308 266.926 348.377 267.591 343.321 271.878L339.887 274.791L338.31 272.804C335.568 269.351 328.608 262.642 323.841 258.858C318.426 254.56 306.345 246.379 298.905 241.971C291.11 237.354 278.338 231.203 272.346 229.181C264.617 226.573 264.893 226.937 268.639 224.305C276.715 218.634 281.499 212.587 283.762 205.192C284.509 202.75 285.251 199.745 285.41 198.513L285.701 196.274L292.417 196.592C311.694 197.508 323.361 201.017 336.678 209.903C347.081 216.844 357.83 228.038 361.474 235.728C362.194 237.245 362.915 238.497 363.076 238.51C363.237 238.523 363.739 237.657 364.191 236.587C364.78 235.192 365.062 233.083 365.186 229.145L365.36 223.65L363.568 219.986C355.687 203.869 341.437 190.622 324.559 183.726C321.908 182.643 319.494 181.755 319.194 181.752C315.855 181.727 325.763 177.953 336.453 175.178C338.845 174.557 345.748 172.977 351.793 171.668C357.837 170.358 362.914 169.208 363.074 169.111C363.595 168.798 364.271 169.997 365.969 174.246C366.887 176.542 368.04 178.853 368.533 179.382C369.45 180.367 370.547 180.308 370.952 179.252C371.263 178.444 369.995 168.874 369.132 165.511C367.781 160.247 366.701 159.087 362.782 158.693C361.271 158.542 358.077 158.104 355.685 157.721C350.289 156.859 334.19 156.862 325.921 157.727ZM155.771 158.826C155.246 158.966 153.288 160.357 151.421 161.918C149.554 163.479 147.525 165.15 146.913 165.63C145.866 166.452 145.837 166.594 146.427 168.018C146.771 168.85 147.777 170.58 148.663 171.862C149.548 173.144 150.945 175.735 151.768 177.622C152.59 179.508 153.476 181.123 153.736 181.209C154.335 181.409 154.339 179.361 153.748 176.242C153.495 174.907 153.396 173.706 153.53 173.573C153.935 173.167 155.183 174.68 156.916 177.678C159.77 182.614 160.796 181.27 158.347 175.802C157.616 174.168 157.091 172.759 157.18 172.67C157.269 172.581 158.131 173.395 159.094 174.48C160.059 175.565 161.501 177.18 162.299 178.069C164.728 180.772 164.643 179.172 162.107 174.424C160.785 171.949 159.703 169.795 159.703 169.638C159.703 169.115 161.274 170.188 163.965 172.547C165.428 173.83 166.818 174.879 167.056 174.879C168.486 174.879 166.402 171.718 160.987 165.678C159.273 163.766 157.871 162.066 157.871 161.9C157.871 161.734 159.094 161.599 160.589 161.599C163.5 161.599 165.874 160.949 165.452 160.267C165.237 159.919 162.334 159.335 157.642 158.697C157.138 158.629 156.296 158.687 155.771 158.826ZM10.3156 188.045C5.51677 198.219 4.07529 205.193 5.56851 211.009C6.61665 215.092 8.02195 217.454 12.5447 222.734C17.354 228.349 17.7528 229.095 17.7528 232.474C17.7528 236.554 15.5641 242.729 12.6578 246.847C12.1861 247.515 11.8001 248.495 11.8001 249.023C11.8001 250.305 16.2747 253.581 20.351 255.283C23.2092 256.476 23.9661 256.589 29.2004 256.604C34.3564 256.62 35.1513 256.511 37.2137 255.505L39.5032 254.388L33.5505 254.047C30.2032 253.855 26.0944 253.31 24.1635 252.802C20.0364 251.716 15.4629 250.035 15.4652 249.605C15.467 249.258 19.9837 245.607 22.1029 244.24C23.5861 243.284 24.5829 243.244 37.6716 243.617C43.0501 243.77 44.4879 243.662 46.6007 242.946C49.6558 241.912 52.6734 240.238 54.8997 238.343C56.8975 236.642 61.2536 231.49 61.2536 230.828C61.2536 230.111 56.3938 228.821 52.7462 228.571C47.0975 228.183 42.0505 230.251 30.3287 237.757C24.7464 241.332 19.9041 244.255 18.5542 244.866C17.7785 245.216 18.3046 243.193 19.5574 241.009C21.4293 237.745 25.0536 233.905 29.9344 230.015C36.0483 225.142 42.1192 217.535 44.2915 212.022C44.7906 210.757 45.7128 207.137 46.3415 203.978C46.9697 200.819 47.7047 197.822 47.9744 197.318C48.2441 196.815 48.3599 196.402 48.2326 196.402C48.1049 196.402 46.3978 197.349 44.4389 198.507C34.4988 204.378 29.004 211.479 28.6482 218.912C28.5836 220.258 28.6999 222.827 28.906 224.619L29.281 227.877L27.5222 229.656C26.5546 230.635 24.1671 232.936 22.216 234.771C19.094 237.707 18.6686 237.976 18.6686 237.009C18.6686 234.621 19.6289 231.087 21.1459 227.889C22.9152 224.16 25.2015 216.627 26.0276 211.801C26.9425 206.46 25.6956 200.945 22.417 195.83C19.3028 190.972 13.4577 182.664 13.1541 182.664C12.9884 182.664 11.7113 185.086 10.3156 188.045ZM67.6642 195.98C63.6369 196.571 58.5533 199.102 56.4419 201.567C54.1973 204.188 51.6527 209.407 49.5683 215.662C48.1095 220.041 47.5069 221.212 45.7439 223.097C44.5932 224.328 42.9242 225.719 42.0354 226.189C39.9268 227.304 41.3517 227.339 43.9297 226.235C49.5189 223.842 53.1894 222.918 59.7228 222.262C63.4116 221.891 67.2741 221.365 68.3062 221.093C74.7649 219.392 79.8206 213.004 84.3533 200.817C85.2769 198.334 85.9693 196.241 85.8919 196.167C85.4757 195.765 70.1945 195.608 67.6642 195.98ZM70.4226 200.582C66.6073 202.908 53.3813 216.916 50.0743 222.133L49.1979 223.516L51.2191 222.488C53.7952 221.178 66.4155 208.782 69.9967 204.045C73.4722 199.447 73.5688 198.664 70.4226 200.582ZM15.3575 205.417C14.662 205.6 14.5974 206.058 14.831 209.142C14.9775 211.077 15.2884 213.484 15.5215 214.491C16.0197 216.644 18.2355 221.589 18.7021 221.589C19.4988 221.589 19.5661 217.921 18.8637 212.769C17.8124 205.061 17.6906 204.806 15.3575 205.417ZM319.862 210.255C320.583 211.325 322.808 214.968 324.807 218.349C330.424 227.853 333.562 230.815 341.261 233.876C345.082 235.395 345.824 235.585 345.427 234.943C345.296 234.731 344.957 232.619 344.674 230.249C344.391 227.879 343.788 225.09 343.334 224.052C341.189 219.145 334.453 214.38 323.308 209.887C321.156 209.019 319.205 208.309 318.973 208.309C318.741 208.309 319.141 209.185 319.862 210.255ZM291.121 209.987C291.121 210.633 295.404 217.881 297.222 220.309C298.273 221.714 300.248 224.042 301.611 225.482L304.087 228.1L308.937 227.134C314.975 225.931 319.044 225.906 322.716 227.049L325.545 227.93L325.24 226.706C324.665 224.4 323.566 222.589 321.06 219.819C316.21 214.46 309.902 211.201 302.339 210.147C298.684 209.638 291.121 209.53 291.121 209.987ZM5.05612 222.843C4.86197 223.538 4.72963 225.447 4.7626 227.085C4.86105 231.952 6.70823 235.279 11.1219 238.54C12.4805 239.543 13.7045 240.365 13.841 240.365C14.2448 240.365 14.1253 237.015 13.6281 234.393C12.7603 229.816 9.90026 224.897 6.75493 222.572L5.41008 221.577L5.05612 222.843ZM304.974 229.856L303.488 230.315L306.924 234.389C313.127 241.742 316.338 243.892 321.796 244.35C325.365 244.649 329.869 243.78 335.613 241.684C342.209 239.276 346.671 239.482 352.557 242.465C356.653 244.54 359.062 247.423 357.506 248.385C357.248 248.544 355.985 248.325 354.699 247.898C351.68 246.895 350.053 247.104 340.104 249.766C332.307 251.853 330.291 252.722 331.207 253.603C331.946 254.314 337.428 255.941 340.615 256.396C346.386 257.219 351.601 255.41 357.86 250.412C361.865 247.214 361.795 246.774 356.335 240.788C355.284 239.635 353.324 236.812 351.98 234.512C350.637 232.214 349.466 230.403 349.38 230.489C349.003 230.867 350.835 236.687 352.028 238.905C352.749 240.243 353.093 241.234 352.794 241.107C352.495 240.98 350.19 240.23 347.671 239.44C345.153 238.65 339.383 236.787 334.85 235.299C321.839 231.029 316.779 229.803 311.268 229.586C308.624 229.481 305.791 229.603 304.974 229.856ZM239.606 267.95C238.599 268.209 237.684 268.502 237.573 268.6C237.462 268.699 238.416 269.857 239.695 271.173C243.841 275.441 246.011 279.111 249.91 288.449C251.225 291.597 252.882 295.307 253.593 296.692L254.886 299.211L254.802 294.86C254.701 289.682 255.169 287.956 257.902 283.411C259.488 280.775 259.97 279.52 259.975 278.012C259.992 273.846 256.466 269.863 251.368 268.288C248.156 267.296 242.751 267.14 239.606 267.95ZM266.658 273.816C263.781 277.001 260.648 282.21 259.544 285.644C258.69 288.297 258.533 289.612 258.698 292.685C258.883 296.104 259.146 296.984 261.472 301.958C264.25 307.901 265.353 311.22 267.025 318.673L268.104 323.481L268.61 320.963C270.939 309.387 272.008 292.544 270.965 283.858C270.416 279.283 269.14 272.803 268.687 272.286C268.512 272.086 267.599 272.775 266.658 273.816ZM119.178 283.959C104.058 292.485 101.541 296.686 103.103 310.783C103.718 316.324 103.734 317.589 103.214 319.099C101.685 323.537 97.2002 329.406 88.632 338.181C85.4106 341.48 82.775 344.407 82.775 344.685C82.775 345.356 86.3191 347.767 88.9887 348.911C90.1637 349.415 93.5815 350.447 96.5835 351.205C106.701 353.76 112.459 356.333 122.055 362.591C128.287 366.655 130.416 367.584 134.333 367.946C140.903 368.554 152.74 366.395 157.24 363.767C158.842 362.832 163.824 357.722 163.824 357.015C163.824 356.888 163.15 356.658 162.327 356.503C160.082 356.082 157.754 354.689 153.378 351.149C147.318 346.247 142.03 344.155 134.215 343.568C129.658 343.226 124.129 344.163 116.594 346.554C108.882 349.002 105.888 349.53 101.415 349.23C97.8024 348.987 91.471 347.377 91.4792 346.704C91.4811 346.525 94.7207 344.833 98.6779 342.944C111.848 336.657 116.14 333.804 126.13 324.694C130.765 320.468 136.405 314.323 142.199 307.189C143.762 305.265 149.878 300.476 152.416 299.19C155.364 297.696 158.725 296.852 163.167 296.489L166.8 296.192L162.908 298.267C160.767 299.407 157.47 301.512 155.581 302.943C150.375 306.888 134.955 319.263 135.088 319.39C135.394 319.681 146.085 317.63 148.713 316.776C155.234 314.657 161.262 310.931 164.435 307.058C165.304 305.998 166.994 303.49 168.192 301.484C169.39 299.478 171.184 296.985 172.177 295.944L173.984 294.051L171.308 292.813C162.242 288.619 152.824 288.948 145.652 293.711C139.595 297.733 133.103 305.166 124.45 317.986C116.244 330.144 109.887 335.932 100.362 339.92C96.0207 341.738 87.5202 344.179 87.077 343.736C86.7981 343.457 87.9831 342.005 97.47 331.004C104.173 323.231 105.154 322.385 110.385 319.874C115.394 317.47 118.796 314.915 121.003 311.901C123.804 308.076 124.098 306.678 124.442 295.547C124.685 287.646 124.917 285.105 125.514 283.77C126.508 281.548 126.517 281.575 124.788 281.608C123.885 281.625 121.677 282.55 119.178 283.959ZM116.851 294.392C109.855 300.223 105.798 308.063 106.217 314.942L106.357 317.234L108.906 314.176C116.933 304.544 120.938 296.947 120.25 292.66C120.11 291.792 119.751 291.975 116.851 294.392ZM279.974 299.2C279.82 300.327 278.456 304.448 276.945 308.357C275.433 312.266 273.78 317.506 273.271 320.003C271.142 330.453 272.961 339.748 278.331 345.848C281.467 349.411 282.32 348.916 287.637 340.443C292.159 333.239 294.309 325.864 293.679 319.72C293.065 313.727 290.269 307.135 286.271 302.256C284.34 299.9 281.28 297.15 280.588 297.15C280.405 297.15 280.129 298.073 279.974 299.2ZM226.556 297.784C226.556 297.949 227.038 298.852 227.627 299.792C228.216 300.731 230.151 304.488 231.927 308.14C236.392 317.32 240.971 323.028 246.441 326.233C248.83 327.633 253.114 328.748 256.104 328.748C259.511 328.748 262.808 329.886 265.448 331.973C266.724 332.982 267.767 333.647 267.767 333.452C267.766 333.258 266.462 329.286 264.868 324.626C261.637 315.181 256.696 303.12 256.409 303.98C255.794 305.825 258.75 319.425 260.93 324.772C262.478 328.573 262.409 328.29 261.787 328.29C260.384 328.29 255.75 322.787 250.586 314.989C244.258 305.434 240.882 301.837 235.977 299.422C233.765 298.333 232.131 297.883 229.766 297.714C228.001 297.588 226.556 297.62 226.556 297.784ZM90.1376 303.218C85.2486 309.15 83.7732 314.238 85.2554 320.054C85.6716 321.687 87.2171 325.496 88.6901 328.519L91.3684 334.014L93.021 330.503C96.4241 323.271 96.7556 318.755 94.6804 307.911C93.9249 303.964 93.3067 300.648 93.3067 300.545C93.3067 299.798 92.1546 300.77 90.1376 303.218ZM280.507 321.812C280.609 324.306 280.363 326.637 279.706 329.405C278.22 335.663 278.634 340.53 280.861 342.992C281.637 343.85 281.701 343.854 282.145 343.076C282.635 342.219 283.433 332.808 283.517 326.916C283.557 324.079 283.351 323.024 282.331 320.848C281.652 319.4 280.931 318.215 280.728 318.214C280.526 318.213 280.426 319.833 280.507 321.812ZM75.8872 323.367C74.3354 326.648 74.242 328.06 75.3638 331.266C76.2485 333.793 79.3183 338.823 79.9763 338.823C80.3632 338.823 81.05 336.343 81.5542 333.126C81.9169 330.812 81.0624 326.528 79.6251 323.456C78.8654 321.833 78.0183 320.505 77.7426 320.505C77.467 320.505 76.6322 321.793 75.8872 323.367ZM141.158 322.07C136.418 323.155 132.623 324.611 127.535 327.296C124.828 328.724 122.615 329.996 122.618 330.122C122.62 330.248 124.528 330.389 126.859 330.435C129.19 330.481 133.558 330.842 136.566 331.236C139.968 331.682 145.519 331.953 151.254 331.953C158.107 331.953 161.05 332.128 162.721 332.635C163.957 333.01 165.046 333.319 165.142 333.322C165.504 333.333 164.684 329.511 164.069 328.322C163.021 326.296 160.013 323.895 157.13 322.783C153.73 321.472 145.39 321.1 141.158 322.07ZM240.543 333.248L234.61 334.014L238.94 338.401C243.986 343.514 247.782 345.708 253.151 346.614C257.031 347.268 258.621 347.098 266.76 345.159L272.849 343.708L270.652 341.447C267.694 338.404 262.735 334.947 259.586 333.731C256.141 332.401 248.587 332.21 240.543 333.248ZM121.213 351.215C118.328 351.422 116.299 351.82 115.26 352.38L113.683 353.23L119.636 353.56C127.434 353.991 132.662 354.954 140.851 357.469C145.816 358.993 148.614 359.592 151.575 359.766C153.95 359.904 155.581 359.824 155.581 359.567C155.581 359.329 154.294 358.594 152.72 357.933C151.146 357.272 147.924 355.885 145.561 354.852C138.085 351.582 130.94 350.514 121.213 351.215Z" fill="black"/>
</svg>
