<svg width="436" height="522" viewBox="0 0 436 522" fill="none" xmlns="http://www.w3.org/2000/svg">
<path fill-rule="evenodd" clip-rule="evenodd" d="M0 200.541V401.082H22.9445C35.564 401.082 45.889 401.194 45.889 401.33C45.889 401.467 44.9653 404.35 43.8365 407.737C42.7072 411.124 41.6303 415.236 41.4425 416.875C40.9944 420.789 39.4335 454.47 38.9407 470.862C38.5521 483.772 38.5527 483.78 39.8716 484.485C40.5975 484.874 41.9604 485.023 42.9008 484.816C43.9551 484.585 45.2877 484.791 46.3783 485.355L48.1459 486.269L46.5016 492.398C45.5976 495.77 44.5338 500.537 44.1381 502.994C43.7423 505.451 43.0159 508.291 42.5236 509.306C42.0307 510.321 41.7155 512.065 41.8216 513.18L42.0152 515.208L46.485 515.916C52.6019 516.884 65.4335 516.892 67.3436 515.929C68.163 515.516 68.9157 514.61 69.0158 513.915C69.1613 512.907 69.7632 512.568 71.9957 512.234C75.5816 511.699 78.0751 510.637 79.5018 509.035C80.5644 507.843 80.5829 507.514 79.7998 503.748C79.0864 500.319 78.6889 499.558 77.075 498.531C74.8229 497.099 73.3771 494.67 71.2823 488.801C69.3728 483.452 69.346 481.434 70.9336 462.36C72.1095 448.234 72.6113 444.369 75.0857 430.361C76.0029 425.168 76.283 420.954 76.283 412.333V401.082H88.7982H101.313V415.835C101.313 424.992 101.644 433.417 102.185 438.044C104.171 455.019 103.93 464.491 101.077 481.555L99.7585 489.447L102.175 490.544C103.504 491.147 105.15 491.648 105.833 491.655C106.516 491.662 107.222 491.815 107.402 491.995C107.582 492.175 107.095 494.79 106.321 497.806C105.373 501.497 104.909 505 104.901 508.525C104.893 512.227 104.619 514.172 103.968 515.166C102.771 516.993 103.384 519.588 105.104 519.975C106.663 520.326 119.94 521.451 122.619 521.46C124.289 521.465 124.556 521.261 124.556 519.976V518.486L132.75 518.465C142.699 518.44 149.152 517.369 154.136 514.916C165.331 509.404 163.53 501.224 150.721 499.407C146.05 498.745 141.343 496.545 137.402 493.181C135.563 491.612 135.197 491 135.721 490.368C136.358 489.601 137.864 437.456 137.292 435.957C137.165 435.622 136.832 428.109 136.552 419.259C136.272 410.408 135.843 402.698 135.6 402.125C135.178 401.133 142.538 401.082 285.402 401.082H435.647V200.541V0H217.824H0V200.541ZM7.74749 200.243V392.738H27.4142H47.0809V386.817C47.0809 383.561 47.3425 380.209 47.662 379.368L48.243 377.839H34.8488H21.4546V348.041V318.243H35.2088H48.9636L48.8354 307.069L48.7073 295.895L52.0655 287.596C53.913 283.033 55.4244 279.077 55.4244 278.806C55.4244 278.535 47.513 278.314 37.8435 278.314H20.2627V242.258V206.202H27.3153H34.3679L34.9984 198.306C35.4668 192.434 35.4543 190.297 34.9483 189.971C34.5741 189.731 31.7874 189.53 28.7551 189.525L23.2425 189.516V174.686V159.856L35.2553 159.416L47.268 158.976L51.3486 156.337C56.447 153.039 69.2745 146.766 76.3098 144.131C79.239 143.034 81.6377 141.941 81.6407 141.7C81.6443 141.46 75.1429 141.187 67.1946 141.093L52.7425 140.923L68.042 140.784L83.3416 140.647L85.1759 136.976C86.7737 133.778 87.0097 132.683 87.0037 128.483C86.9954 122.149 86.4686 119.168 85.285 118.754C82.0561 117.623 79.2628 111.865 79.2628 106.341C79.2628 103.185 79.3248 103.059 81.0507 102.714C82.034 102.517 82.8386 102.159 82.8386 101.918C82.8386 101.676 82.1681 101.607 81.3487 101.763L79.8588 102.048V91.8477C79.8588 86.2367 79.7914 81.4452 79.7098 81.1997C79.6281 80.9541 81.0358 80.5954 82.8386 80.4029L86.1164 80.053L82.9876 79.9559L79.8588 79.8588V73.2889V66.7196L90.1391 66.8823L100.419 67.0456L100.598 70.1166L100.776 73.1876L103.279 73.4915C109.534 74.2508 112.32 75.2234 114.509 77.4129C115.702 78.6066 117.981 80.4756 119.574 81.5662C123.64 84.3511 124.754 86.0645 125.028 89.9633C125.229 92.812 123.918 99.6917 121.829 106.752C121.646 107.371 121.979 107.836 122.751 108.037C124.221 108.421 124.409 111.601 123.14 114.636C121.916 117.566 118.685 120.98 117.137 120.98C115.823 120.98 115.795 121.14 115.446 130.515C115.161 138.165 115.26 140.375 115.946 141.69C116.416 142.591 116.802 143.88 116.805 144.556C116.811 146.558 117.939 147.451 125.45 151.399C138.84 158.439 147.489 164.279 150.238 168.139C151.001 169.211 152.225 172.112 152.958 174.587L154.29 179.086L154.322 162.25L154.354 145.414H180.576H206.798V186.238V227.061H183.529H160.259L160.635 229.065C160.842 230.167 161.055 234.123 161.11 237.856C161.219 245.473 161.01 246.114 157.037 250.304C155.29 252.146 154.089 254.198 153.202 256.859C152.074 260.241 151.152 261.529 145.951 266.99C140.38 272.841 140.01 273.384 140.246 275.334C140.386 276.481 140.921 278.426 141.436 279.655L142.374 281.89H162.965C176.295 281.89 183.556 282.1 183.556 282.485C183.556 282.871 176.383 283.081 163.23 283.081C146.08 283.081 142.953 283.211 143.223 283.913C143.398 284.371 143.872 285.846 144.274 287.191L145.007 289.637H164.317C177.038 289.637 183.501 289.84 183.258 290.233C183.025 290.61 176.001 290.829 164.152 290.829H145.414V293.462C145.414 298.328 143.898 297.973 164.996 298.04C175.376 298.073 183.184 298.314 182.364 298.576C181.545 298.839 172.896 299.08 163.144 299.113L145.414 299.172V301.258V303.344H164.485H183.556V310.496V317.647H164.834H146.112L145.74 322.266C145.309 327.619 143.678 341.62 143.206 344.012L142.885 345.644L166.945 345.8L191.005 345.955L191.164 362.791L191.322 379.627H163.926H136.529L136.203 381.564C135.491 385.803 134.696 391.289 134.692 391.993C134.688 392.587 164.404 392.738 281.294 392.738H427.9V200.243V7.74749H217.824H7.74749V200.243ZM222.293 66.6755V111.902L242.109 112.336C253.008 112.573 278.418 112.664 298.576 112.536L335.228 112.305V67.0283V21.7526L278.761 21.6006L222.293 21.4486V66.6755ZM379.158 22.0506C358.158 22.305 354.47 22.4796 353.988 23.2425C353.646 23.7836 353.42 40.9944 353.414 66.8543C353.406 104.902 353.507 109.674 354.341 110.508C355.163 111.33 358.363 111.445 380.471 111.445C404.121 111.445 405.725 111.378 406.651 110.355C407.55 109.362 407.637 105.467 407.637 66.6439C407.637 26.7914 407.569 23.9648 406.594 23.1275C406.021 22.6346 405.149 22.1239 404.657 21.9921C404.166 21.8604 392.691 21.8867 379.158 22.0506ZM30.096 23.3897C27.5489 24.8003 27.4529 25.3808 27.4333 39.4824L27.4142 53.0405L28.7551 53.0316C31.6116 53.0119 31.6169 52.9785 31.4477 37.3965C31.2903 22.9296 31.2719 22.7389 30.096 23.3897ZM33.2445 37.5449L33.4137 52.4446H35.1814H36.9496V37.5455V22.6465L35.0127 22.6459H33.0758L33.2445 37.5449ZM38.7375 37.5455V52.4446H40.8233H42.9092V37.5455V22.6465H40.8233H38.7375V37.5455ZM44.6971 37.5104C44.6971 47.3098 44.9116 52.5071 45.327 52.7634C45.6733 52.9774 46.6119 52.9881 47.4129 52.7872L48.8688 52.4219V37.5342V22.6465H46.7829H44.6971V37.5104ZM50.2747 24.0363C50.4844 24.6364 50.6567 31.2742 50.6567 38.7863V52.4446H52.7425H54.8284V40.2774V28.1103L52.3605 25.5274C51.0029 24.1066 50.0643 23.4356 50.2747 24.0363ZM66.4496 38.1415L81.3397 53.0405H90.7303H100.121V39.8835V26.7265L98.3794 24.9845L96.6374 23.2425H74.0982H51.5596L66.4496 38.1415ZM129.125 23.64C128.906 23.8581 128.728 48.2627 128.728 77.8724V131.707L167.316 131.679L205.904 131.65L195.177 121.273L184.45 110.896L195.177 110.724L205.904 110.551L205.884 77.7729C205.863 45.3979 205.847 44.9515 204.54 41.4676C201.071 32.2147 194.512 26.3349 185.213 24.143C182.211 23.435 176.329 23.2586 155.496 23.2514C141.211 23.2466 129.343 23.4213 129.125 23.64ZM129.919 67.0456V110.253H154.854C168.568 110.253 185.463 110.076 192.399 109.86L205.011 109.467L205.01 84.0847L205.009 58.7021L203.31 62.2779C198.303 72.8115 187.238 78.7241 175.847 76.9535C169.764 76.0077 165.698 73.9945 161.255 69.728C155.898 64.5843 153.602 59.4882 153.267 51.9988C152.863 42.9831 155.153 36.8274 160.977 31.2719C164.066 28.326 169.566 25.0518 171.453 25.0363C171.843 25.0327 172.328 24.7622 172.531 24.4344C172.774 24.0411 165.584 23.8384 151.409 23.8384H129.919V67.0456ZM224.316 24.7812C224.515 25.2997 224.677 44.743 224.677 67.9884V110.253H278.91H333.142V67.0456V23.8384H278.548C229.01 23.8384 223.987 23.9254 224.316 24.7812ZM56.2343 31.2879C56.4369 32.5991 56.6062 37.896 56.6097 43.0582L56.6163 52.4446H58.7021H60.788V43.0302V33.6158L58.3267 31.2599L55.8648 28.9041L56.2343 31.2879ZM61.9174 35.5693C62.2982 36.3226 62.5759 40.1547 62.5759 44.6577V52.4446H64.3423H66.1088L66.2792 46.7799C66.5069 39.222 67.5915 39.1189 67.812 46.6339L67.9824 52.4446H69.973C71.9629 52.4446 71.9641 52.4434 72.2758 49.0178L72.588 45.591L66.9234 39.9294C63.8078 36.8155 61.555 34.8536 61.9174 35.5693ZM236.001 66.7476V98.9373L279.953 98.7841L323.905 98.6315V66.7476V34.8637L279.953 34.7112L236.001 34.558V66.7476ZM236.74 66.8966L236.894 98.0356H279.804H322.713L322.867 66.8966L323.022 35.7577H279.804H236.586L236.74 66.8966ZM243.294 66.8966L243.45 91.48L264.16 91.6367L284.869 91.7935V68.2101C284.869 52.6394 284.667 44.7519 284.273 44.995C283.893 45.2305 283.677 53.6424 283.677 68.2727V91.182H264.101H244.524L244.139 85.3714C243.64 77.8426 243.637 53.3439 244.134 47.4689L244.519 42.9092H280.189H315.859V67.0039V91.0992L314.518 91.3572C313.549 91.5444 313.714 91.6379 315.114 91.6969L317.051 91.778V67.0456V42.3132H280.095H243.139L243.294 66.8966ZM74.0976 49.7627V52.4446H76.3825C77.6388 52.4446 78.6668 52.2378 78.6668 51.9845C78.6668 51.3331 75.0982 47.0809 74.5511 47.0809C74.302 47.0809 74.0976 48.2877 74.0976 49.7627ZM290.233 70.9193V91.778L294.256 91.6808L298.278 91.5837L295.001 91.2339L291.723 90.884V70.9193V50.9547L299.619 50.7884L307.516 50.6221L307.525 71.0511C307.531 84.4608 307.733 91.1731 308.112 90.5861C308.455 90.0551 308.693 81.6407 308.699 69.8764L308.708 50.0607H299.47H290.233V70.9193ZM27.4142 60.1921V66.1517H29.5001H31.5859V60.1921V54.2324H29.5001H27.4142V60.1921ZM32.9048 60.0055L33.0758 65.8537H35.1617H37.2476V60.1921V54.5304L34.9907 54.3439L32.7337 54.1579L32.9048 60.0055ZM38.7375 60.1921V66.1517H40.7357H42.7346L43.1196 61.592C43.7668 53.9392 43.846 54.2324 41.1213 54.2324H38.7375V60.1921ZM44.6971 60.1921V66.1517H46.7829H48.8688V60.1921V54.2324H46.7829H44.6971V60.1921ZM50.6567 60.1921V66.1517H52.7425H54.8284V60.1921V54.2324H52.7425H50.6567V60.1921ZM56.0203 59.2492C56.0203 65.6099 56.2355 66.1517 58.7659 66.1517H60.788V60.1921V54.2324H58.4042H56.0203V59.2492ZM62.1075 60.0431L62.2779 65.8537H64.3638H66.4496L66.6201 60.0431L66.7905 54.2324H64.3638H61.937L62.1075 60.0431ZM68.0671 60.0431L68.2375 65.8537H70.3234H72.4092L72.5797 60.0431L72.7501 54.2324H70.3234H67.8966L68.0671 60.0431ZM74.0267 60.0431L74.1971 65.8537L76.134 66.0402L78.0709 66.2273V60.2296V54.2324H75.9636H73.8562L74.0267 60.0431ZM79.7491 60.1777L79.938 66.1517H90.3495H100.76L100.59 60.341L100.419 54.5304L89.9901 54.3671L79.5608 54.2038L79.7491 60.1777ZM27.4142 73.3032V79.8588H29.5001H31.5859V73.3032V66.7476H29.5001H27.4142V73.3032ZM32.9066 73.1542L33.0758 79.5608L35.0127 79.7473L36.9496 79.9344V73.3407V66.7476H34.8435H32.7373L32.9066 73.1542ZM38.7375 73.3032V79.8588H40.8233H42.9092V73.3032V66.7476H40.8233H38.7375V73.3032ZM44.6971 73.3032V79.8588H46.7829H48.8688V73.3032V66.7476H46.7829H44.6971V73.3032ZM50.6567 73.3032V79.8588H52.7425H54.8284V73.3032V66.7476H52.7425H50.6567V73.3032ZM56.5668 66.9938C56.4304 67.1284 56.4023 70.0784 56.5054 73.5493L56.6932 79.8588H58.7403H60.788V73.3032V66.7476H58.8017C57.7087 66.7476 56.7033 66.8585 56.5668 66.9938ZM62.1897 68.048C62.3929 68.8079 62.5634 71.793 62.5675 74.6817L62.5759 79.9344L64.5128 79.7473L66.4496 79.5608V73.3032V67.0456L64.1343 66.8561C61.9704 66.6785 61.8435 66.756 62.1897 68.048ZM67.9395 73.3032V79.9309L70.1744 79.7455L72.4092 79.5608V73.3032V67.0456L70.1744 66.8609L67.9395 66.6755V73.3032ZM74.0279 73.1542L74.1971 79.5608L76.134 79.7473L78.0709 79.9344V73.3407V66.7476H75.9648H73.8586L74.0279 73.1542ZM27.4142 91.1445V101.909H29.5138H31.6133L31.4506 91.331L31.2879 80.7527L29.3511 80.5662L27.4142 80.379V91.1445ZM33.0013 82.3171C33.2063 83.3416 33.3738 88.1688 33.3738 93.0444V101.909H35.1617H36.9496V91.182V80.4547H34.7892C32.6873 80.4547 32.639 80.5054 33.0013 82.3171ZM38.7375 91.182V101.909H40.8233H42.9092V91.182V80.4547H40.8233H38.7375V91.182ZM44.6971 91.182V101.909H46.7829H48.8688V91.182V80.4547H46.7829H44.6971V91.182ZM50.6072 80.7015C50.4707 80.8373 50.438 85.6646 50.5345 91.4287L50.7097 101.909H52.7694H54.8284V91.182V80.4547H52.8421C51.7491 80.4547 50.7437 80.5656 50.6072 80.7015ZM56.6056 80.6037C56.5793 80.9577 56.5632 100.491 56.5883 101.164C56.605 101.613 57.4459 101.909 58.7021 101.909H60.788V91.182V80.4547H58.7021C57.5549 80.4547 56.6115 80.5221 56.6056 80.6037ZM62.5544 80.6734C62.4025 80.8248 62.3572 85.6807 62.4537 91.4645L62.6295 101.981L64.4299 101.796L66.2309 101.611L66.331 91.182L66.4318 80.7527L64.6314 80.5757C63.6415 80.478 62.7064 80.5221 62.5544 80.6734ZM67.9395 91.1463V101.909H70.0254H72.1113V91.778C72.1113 86.2057 72.1786 81.4452 72.2603 81.1997C72.3419 80.9541 71.4039 80.6693 70.1744 80.568L67.9395 80.3826V91.1463ZM73.8992 91.182V101.909H75.985H78.0709V91.182V80.4547H75.985H73.8992V91.182ZM39.4824 102.9C38.9079 103.132 38.7375 107.622 38.7375 122.519V141.839H40.8233H42.9092L42.9283 130.068C42.939 123.595 43.1029 114.98 43.2924 110.924C43.5659 105.069 43.47 103.445 42.8258 103.037C41.9449 102.479 40.6565 102.426 39.4824 102.9ZM45.74 102.91C44.7739 103.168 44.6971 104.614 44.6971 122.552V141.914L46.6339 141.727L48.5708 141.541V122.18C48.5708 101.486 48.665 102.128 45.74 102.91ZM51.5506 103.012C50.3927 103.388 50.3587 103.925 50.3587 121.97C50.3587 135.675 50.5363 140.437 51.0363 140.147C51.5965 139.821 57.9387 132.994 75.9504 113.329C78.4201 110.632 78.4684 110.48 78.2002 106.23L77.9648 102.505H75.932H73.8992V108.728C73.8992 112.233 73.6387 115.111 73.3032 115.318C72.9206 115.555 72.7072 113.449 72.7072 109.429C72.7072 105.987 72.5064 103.054 72.2603 102.909C72.0141 102.765 70.942 102.78 69.8764 102.942L67.9395 103.237L67.9306 111.959C67.9252 116.757 67.6612 121.084 67.3436 121.576C66.9574 122.174 66.7631 119.258 66.7566 112.786L66.7476 103.101L64.5128 103.102L62.2779 103.102L62.0896 115.468C61.9865 122.269 61.651 128.088 61.3446 128.4C60.9996 128.751 60.788 124.055 60.788 116.034V103.101H58.5532H56.3183V118.268C56.3183 129.607 56.13 133.623 55.5734 134.181C54.9774 134.777 54.8284 131.756 54.8284 119.077C54.8284 105.175 54.7128 103.184 53.8856 102.867C53.3671 102.668 52.8981 102.532 52.8427 102.565C52.7878 102.598 52.2062 102.798 51.5506 103.012ZM27.4142 120.709V138.317L28.8773 139.78C29.6818 140.584 30.6205 141.243 30.9632 141.243C31.3833 141.243 31.5859 135.041 31.5859 122.172V103.101H29.5001H27.4142V120.709ZM33.1986 122.321L33.3214 141.541H35.1194H36.9174L37.2815 122.321L37.6451 103.101H35.3607H33.0758L33.1986 122.321ZM318.243 167.167V208.586L364.579 208.595C390.064 208.599 411.519 208.765 412.256 208.962L413.597 209.321V167.535V125.748H365.92H318.243V167.167ZM319.435 167.469V207.998L366.069 207.845L412.703 207.692L412.759 173.425C412.79 154.577 412.686 136.408 412.529 133.048L412.242 126.94H365.839H319.435V167.469ZM222.293 178.192V226.465H262.521H302.748V178.192V129.919H262.521H222.293V178.192ZM376.601 141.197C374.664 143.134 374.387 145.156 375.709 147.712C377.852 151.856 384.369 151.58 386.155 147.27C388.59 141.389 381.143 136.655 376.601 141.197ZM337.567 141.173C335.93 141.921 334.812 142.97 334.14 144.386C332.888 147.024 332.883 148.562 334.117 151.161C337.202 157.665 348.041 155.287 348.041 148.107C348.041 142.376 342.687 138.831 337.567 141.173ZM250.594 145.858C240.843 149.335 234.064 156.833 232.365 166.023C231.757 169.314 231.962 171.758 233.084 174.617C233.456 175.561 237.318 178.648 243.626 183.045C279.595 208.111 288.264 214.193 289.194 215.01C289.769 215.516 290.306 215.819 290.386 215.685C290.465 215.55 290.377 205.517 290.189 193.389C289.813 169.075 289.855 169.369 285.683 161.433C282.564 155.495 277.683 150.813 271.331 147.666C266.402 145.224 265.977 145.123 259.897 144.962C255.017 144.832 252.902 145.035 250.594 145.858ZM156.738 165.677V184.166L180.658 184.009L204.578 183.854L204.516 165.677L204.453 147.5L180.596 147.345L156.738 147.189V165.677ZM354.001 153.609L354.001 159.122H360.579H367.157L366.986 153.609L366.814 148.096H360.408H354.002L354.001 153.609ZM375.409 156.692C372.458 159.644 373.614 164.78 377.569 166.284C379.779 167.124 383.101 165.873 384.423 163.704C385.825 161.405 385.854 160.758 384.664 158.251C382.926 154.59 378.293 153.809 375.409 156.692ZM354.001 165.995V172.273L360.407 172.104L366.814 171.935L366.983 166.214L367.153 160.492L362.573 160.105C360.054 159.892 357.094 159.718 355.997 159.718H354.001V165.995ZM339.056 168.015C337.16 169.911 336.965 170.816 337.975 173.033C339.244 175.817 342.756 176.558 345.279 174.573C347.827 172.569 347.378 168.674 344.422 167.145C342 165.892 341.02 166.051 339.056 168.015ZM376.835 173.701C374.57 174.686 373.072 177.317 373.072 180.308C373.072 181.987 373.533 182.945 375.098 184.51C376.827 186.239 377.534 186.536 379.925 186.536C382.316 186.536 383.023 186.239 384.752 184.51C386.326 182.936 386.779 181.991 386.779 180.281C386.779 177.433 385.237 174.869 382.841 173.732C380.523 172.633 379.306 172.626 376.835 173.701ZM357.168 174.297C355.081 175.205 353.405 177.869 353.405 180.278C353.405 186.005 360.522 189.275 364.755 185.493C368.369 182.263 367.52 176.069 363.218 174.271C360.728 173.232 359.608 173.236 357.168 174.297ZM339.915 180.677C337.164 182.009 336.572 185.848 338.777 188.052C341.924 191.2 346.849 189.097 346.849 184.604C346.849 181.04 343.307 179.034 339.915 180.677ZM156.738 188.333C156.738 191.19 159.398 219.247 160.057 223.344L160.37 225.288L182.542 225.131L204.713 224.975L204.557 205.309L204.401 185.642L180.57 185.486L156.738 185.33V188.333ZM22.1948 242.109L22.3485 276.228L38.9013 276.386C51.8552 276.51 55.5 276.38 55.6627 275.79C55.7778 275.376 56.1252 273.635 56.4357 271.921C56.9995 268.808 56.9995 268.808 54.5733 266.216C53.2384 264.791 50.6519 261.499 48.8259 258.901C46.9993 256.303 43.6166 251.495 41.309 248.218C39.0015 244.94 36.6075 241.466 35.9889 240.498C34.9752 238.912 34.8446 237.214 34.67 223.364L34.4769 207.99H28.2587H22.041L22.1948 242.109ZM339.934 226.704C336.283 227.862 332.32 230.844 330.223 234.01C323.724 243.822 327.154 257.15 337.612 262.721L340.592 264.309H370.986C401.17 264.309 401.396 264.3 403.833 262.996C409.293 260.075 412.21 256.484 413.931 250.566C416.533 241.614 412.537 232.056 404.397 227.76L401.38 226.167L371.88 226.047C349.021 225.954 341.829 226.102 339.934 226.704ZM193.135 242.339C192.455 243.202 191.899 244.409 191.899 245.02C191.899 248.197 197.469 249.827 199.315 247.191C202.32 242.901 196.368 238.228 193.135 242.339ZM209.801 242.073C207.261 244.799 208.966 248.516 212.758 248.516C214.476 248.516 215.314 248.174 216.002 247.191C217.247 245.414 217.171 244.215 215.694 242.339C214.141 240.363 211.505 240.244 209.801 242.073ZM293.009 244.15C292.793 244.366 292.617 244.9 292.617 245.337C292.617 246.225 294.153 246.425 294.661 245.603C295.067 244.947 293.548 243.612 293.009 244.15ZM297.949 244.68C297.295 245.468 297.306 245.718 298.019 246.168C299.205 246.919 299.59 246.861 299.967 245.877C300.494 244.504 298.887 243.55 297.949 244.68ZM303.54 244.692C303.113 245.805 304.173 247.023 305.08 246.462C306.027 245.877 305.872 244.526 304.811 244.12C304.28 243.916 303.746 244.157 303.54 244.692ZM263.415 245.238C263.415 245.73 263.817 246.132 264.309 246.132C264.8 246.132 265.203 245.73 265.203 245.238C265.203 244.746 264.8 244.344 264.309 244.344C263.817 244.344 263.415 244.746 263.415 245.238ZM268.288 245.269C268.557 246.564 269.615 246.643 269.857 245.387C269.982 244.734 269.69 244.344 269.076 244.344C268.504 244.344 268.175 244.73 268.288 245.269ZM272.95 245.238C272.95 245.73 273.352 246.132 273.844 246.132C274.336 246.132 274.738 245.73 274.738 245.238C274.738 244.746 274.336 244.344 273.844 244.344C273.352 244.344 272.95 244.746 272.95 245.238ZM277.718 245.238C277.718 245.73 277.941 246.132 278.214 246.132C278.488 246.132 278.711 245.73 278.711 245.238C278.711 244.746 278.488 244.344 278.214 244.344C277.941 244.344 277.718 244.746 277.718 245.238ZM285.95 244.751C286.379 244.923 286.894 244.902 287.092 244.704C287.29 244.506 286.938 244.365 286.31 244.391C285.615 244.42 285.474 244.561 285.95 244.751ZM308.708 245.238C308.708 245.73 309.11 246.132 309.602 246.132C310.093 246.132 310.496 245.73 310.496 245.238C310.496 244.746 310.093 244.344 309.602 244.344C309.11 244.344 308.708 244.746 308.708 245.238ZM281.778 245.943C282.208 246.115 282.722 246.094 282.92 245.896C283.118 245.698 282.766 245.557 282.138 245.583C281.444 245.612 281.302 245.753 281.778 245.943ZM229.445 266.651C229.445 276.332 229.429 276.446 228.104 276.701C227.367 276.844 231.792 276.996 237.937 277.041L249.112 277.122V266.99V256.859H239.278H229.445V266.651ZM261.031 266.651C261.031 276.332 261.015 276.446 259.69 276.701C258.953 276.844 263.378 276.996 269.523 277.041L280.698 277.122V266.99V256.859H270.864H261.031V266.651ZM291.425 266.649C291.425 275.471 291.322 276.466 290.382 276.711C289.809 276.861 294.233 277.015 300.215 277.053L311.092 277.122V266.99V256.859H301.258H291.425V266.649ZM193.687 268.48V278.91H203.819H213.95V268.48V258.051H203.819H193.687V268.48ZM145.518 270.753C142.951 273.486 144.652 277.32 148.431 277.32C150.767 277.32 152.168 275.881 152.168 273.482C152.168 269.826 147.997 268.115 145.518 270.753ZM160.909 270.566C159.178 272.298 159.367 274.972 161.331 276.516C164.2 278.773 167.465 276.991 167.465 273.168C167.465 269.764 163.346 268.129 160.909 270.566ZM176.448 270.945C174.923 272.883 174.887 274.205 176.311 275.963C178.484 278.647 183.556 276.964 183.556 273.56C183.556 271.707 181.231 269.374 179.384 269.374C178.256 269.374 177.267 269.904 176.448 270.945ZM229.445 299.175V309.31L239.278 309.158L249.111 309.006L249.112 299.023V289.041H239.278H229.445V299.175ZM260.91 298.83L260.733 308.62L262.446 308.962C264.718 309.415 273.644 309.389 277.569 308.918L280.698 308.541V298.792V289.041H270.892H261.086L260.91 298.83ZM291.425 298.831C291.425 307.646 291.321 308.649 290.382 308.912C289.809 309.072 294.233 309.188 300.215 309.17L311.092 309.137V299.09V289.041H301.258H291.425V298.831ZM389.225 295.895C388.829 298.189 386.089 313.475 383.136 329.864C376.349 367.516 374.859 375.941 374.859 376.664C374.859 377.025 380.732 377.243 390.401 377.243H405.944L405.615 375.604C404.368 369.391 393.624 311.782 392.139 303.344C391.129 297.608 390.222 292.647 390.124 292.319C390.025 291.991 389.621 293.6 389.225 295.895ZM350.425 293.566C350.425 295.086 337.034 371.049 335.806 376.498L335.503 377.839H351.382H367.261L366.945 376.2C366.772 375.299 363.207 356.325 359.023 334.036C352.274 298.085 350.425 289.379 350.425 293.566ZM23.2425 348.339V376.647H36.0348C48.4945 376.647 48.8444 376.614 49.5095 375.373C51.1269 372.349 51.2544 370.566 50.0464 367.835C48.9653 365.39 48.8682 363.803 48.8634 348.412C48.861 339.194 48.6894 330.245 48.4826 328.523L48.1066 325.395H37.4627C28.3981 325.395 26.8182 325.262 26.8182 324.501C26.8182 323.739 28.4077 323.607 37.5455 323.607C44.2996 323.607 48.2728 323.386 48.2728 323.011C48.2728 322.675 46.5845 322.415 44.3991 322.415C42.2137 322.415 40.5253 322.155 40.5253 321.819C40.5253 321.479 42.3132 321.223 44.6971 321.223C47.0809 321.223 48.8688 320.967 48.8688 320.627C48.8688 320.248 44.2006 320.031 36.0556 320.031H23.2425V348.339ZM229.445 331.013C229.445 339.835 229.342 340.829 228.402 341.075C227.829 341.225 232.253 341.378 238.235 341.416L249.112 341.486V331.354V321.223H239.278H229.445V331.013ZM261.031 331.015C261.031 340.695 261.015 340.81 259.69 341.065C258.953 341.207 263.378 341.36 269.523 341.405L280.698 341.486V331.354V321.223H270.864H261.031V331.015ZM291.425 331.013C291.425 339.835 291.322 340.829 290.382 341.075C289.809 341.225 294.233 341.378 300.215 341.416L311.092 341.486V331.354V321.223H301.258H291.425V331.013ZM96.8204 335.684C95.8502 337.245 93.57 340.866 91.7541 343.729C88.738 348.485 88.3578 349.477 87.3649 355.193C85.2594 367.309 81.2134 381.804 77.1769 391.695C76.78 392.669 77.5715 392.738 89.0324 392.738H101.313V375.601C101.313 363.775 101.025 356.063 100.383 350.719C99.8717 346.46 99.2579 340.696 99.0189 337.91L98.5856 332.844L96.8204 335.684ZM141.079 351.186C139.998 353.61 139.216 356.753 138.82 360.258C138.486 363.208 137.861 368.304 137.43 371.582C136.998 374.859 136.757 377.742 136.893 377.988C137.03 378.234 148.925 378.435 163.328 378.435H189.516V362.94V347.445L166.124 347.461L142.733 347.477L141.079 351.186ZM147.325 355.963L140.05 363.256L147.205 370.393L154.36 377.529L161.657 370.226L168.955 362.924L161.778 355.798L154.601 348.671L147.325 355.963ZM206.631 358.972C206.453 360.068 206.351 365.498 206.404 371.04L206.5 381.117L245.089 381.27L283.677 381.424V369.202V356.981H245.316H206.955L206.631 358.972ZM239.234 361.897C239.335 364.273 239.453 369.369 239.497 373.221L239.576 380.223H245.834H252.091V368.9V357.577H245.571H239.051L239.234 361.897ZM252.687 368.9V380.223H267.884H283.081V368.9V357.577H267.884H252.687V368.9Z" fill="black"/>
</svg>
