<svg width="520.701" height="71.401" viewBox="0 0 520.701 71.401" xmlns="http://www.w3.org/2000/svg"><g id="svgGroup" stroke-linecap="round" fill-rule="evenodd" font-size="9pt" stroke="#121212" stroke-width="0.25mm" fill="#121212" style="stroke:#121212;stroke-width:0.25mm;fill:#121212"><path d="M 10 20.1 L 10 70.7 L 0 70.7 L 0 0.7 L 11 0.7 L 35.9 57.4 L 60.7 0.7 L 71.6 0.7 L 71.6 70.7 L 61.7 70.7 L 61.7 20.1 L 39.5 70.7 L 32.2 70.7 L 10 20.1 Z M 134.2 0.7 L 134.2 9.1 L 97.4 9.1 L 97.4 31 L 125 31 L 125 39.4 L 97.4 39.4 L 97.4 62.3 L 134.2 62.3 L 134.2 70.7 L 87.4 70.7 L 87.4 0.7 L 134.2 0.7 Z M 374 0.7 L 374 9.1 L 337.2 9.1 L 337.2 31 L 364.8 31 L 364.8 39.4 L 337.2 39.4 L 337.2 62.3 L 374 62.3 L 374 70.7 L 327.2 70.7 L 327.2 0.7 L 374 0.7 Z M 211.6 70.7 L 211.6 0.7 L 221.6 0.7 L 221.6 31 L 225.2 31 L 252.6 0.7 L 265.2 0.7 L 234.1 35.2 L 265.6 70.7 L 252.5 70.7 L 225.1 39.4 L 221.6 39.4 L 221.6 70.7 L 211.6 70.7 Z M 423.9 19.7 L 414.2 19.7 A 23.33 23.33 0 0 1 415.178 14.214 A 18.205 18.205 0 0 1 417.75 9 Q 420.9 4.6 426.1 2.3 A 26.57 26.57 0 0 1 433.186 0.324 A 34.584 34.584 0 0 1 438 0 A 31.07 31.07 0 0 1 443.406 0.446 Q 447.091 1.097 450 2.7 A 20.034 20.034 0 0 1 454.935 6.465 A 17.762 17.762 0 0 1 457.45 9.85 Q 460 14.3 460 19.5 A 15.68 15.68 0 0 1 459.244 24.418 A 14.376 14.376 0 0 1 458.4 26.45 Q 456.8 29.6 454.05 31.8 Q 451.3 34 447.8 34.9 L 447.8 35.4 A 22.089 22.089 0 0 1 452.588 37.181 A 19.189 19.189 0 0 1 454.85 38.55 Q 457.9 40.7 459.6 44.05 A 15.061 15.061 0 0 1 460.926 47.991 Q 461.271 49.748 461.298 51.758 A 25.581 25.581 0 0 1 461.3 52.1 A 21.212 21.212 0 0 1 460.588 57.698 A 17.713 17.713 0 0 1 458.7 62.15 A 16.724 16.724 0 0 1 453.081 67.788 A 21.328 21.328 0 0 1 450.95 68.95 A 23.54 23.54 0 0 1 445.584 70.709 Q 443.074 71.228 440.176 71.357 A 44.219 44.219 0 0 1 438.2 71.4 A 41.009 41.009 0 0 1 431.853 70.933 A 29.714 29.714 0 0 1 425.4 69.2 Q 419.9 67 416.75 62.3 A 19.27 19.27 0 0 1 414.315 56.996 Q 413.403 53.909 413.2 50.1 L 422.8 50.1 Q 423.213 55.22 425.739 58.328 A 10.947 10.947 0 0 0 426.9 59.55 Q 430.5 62.8 438.2 62.8 A 23.857 23.857 0 0 0 441.228 62.62 Q 443.742 62.297 445.6 61.4 A 10.146 10.146 0 0 0 448.079 59.744 A 8.497 8.497 0 0 0 449.85 57.45 Q 451.162 54.973 451.199 51.503 A 18.963 18.963 0 0 0 451.2 51.3 A 15.372 15.372 0 0 0 450.852 47.907 Q 449.929 43.83 446.55 42.05 Q 441.9 39.6 432.5 39.6 L 430 39.6 L 430 31.1 L 432.6 31.1 A 52.326 52.326 0 0 0 436.615 30.885 Q 438.569 30.699 440.241 30.362 A 24.892 24.892 0 0 0 442.15 29.9 Q 446 28.8 447.95 26.55 A 7.728 7.728 0 0 0 449.626 23.172 Q 449.896 22.006 449.9 20.644 A 14.024 14.024 0 0 0 449.9 20.6 A 13.836 13.836 0 0 0 449.173 16.042 A 12.097 12.097 0 0 0 446.9 12.1 A 9.428 9.428 0 0 0 442.4 9.235 Q 440.855 8.759 438.984 8.64 A 20.235 20.235 0 0 0 437.7 8.6 Q 434.047 8.6 431.378 9.697 A 11.572 11.572 0 0 0 430.6 10.05 Q 427.7 11.5 426 14 A 12.703 12.703 0 0 0 423.955 19.303 A 14.88 14.88 0 0 0 423.9 19.7 Z M 472.4 55.6 L 481.5 52.2 A 12.812 12.812 0 0 0 483.836 57.25 A 14.776 14.776 0 0 0 483.95 57.4 A 12.374 12.374 0 0 0 486.96 60.163 A 16.014 16.014 0 0 0 489 61.3 A 14.792 14.792 0 0 0 492.33 62.377 Q 493.885 62.695 495.678 62.774 A 27.64 27.64 0 0 0 496.9 62.8 A 23.918 23.918 0 0 0 500.711 62.518 Q 504.888 61.842 507.25 59.55 A 11.292 11.292 0 0 0 509.654 56.253 A 10.104 10.104 0 0 0 510.6 51.9 A 10.375 10.375 0 0 0 510.242 49.109 A 8.008 8.008 0 0 0 508.55 45.95 Q 506.562 43.672 503.164 42.051 A 23.89 23.89 0 0 0 502.95 41.95 Q 499.4 40.3 494.8 39 Q 490.8 37.8 486.95 36.45 Q 483.1 35.1 480 33.05 Q 476.9 31 475.1 27.75 Q 473.3 24.5 473.3 19.6 A 21.479 21.479 0 0 1 473.935 14.266 A 16.935 16.935 0 0 1 476.2 9.1 A 18.158 18.158 0 0 1 482.92 3.052 A 22.316 22.316 0 0 1 484.35 2.35 Q 489.6 0 496.5 0 Q 502.3 0 506.9 1.65 A 22.886 22.886 0 0 1 511.851 4.103 A 19.559 19.559 0 0 1 514.65 6.35 Q 517.8 9.4 519.3 13.7 L 510.2 17 A 8.664 8.664 0 0 0 508.942 14.348 A 11.617 11.617 0 0 0 507.7 12.85 A 13.138 13.138 0 0 0 504.776 10.614 A 16.572 16.572 0 0 0 502.9 9.7 A 15.741 15.741 0 0 0 498.687 8.63 A 19.704 19.704 0 0 0 496.4 8.5 Q 494.199 8.441 492.263 8.859 A 14.01 14.01 0 0 0 489.75 9.65 A 12.219 12.219 0 0 0 486.811 11.389 A 10.509 10.509 0 0 0 485.05 13.2 A 8.559 8.559 0 0 0 483.345 17.698 A 10.967 10.967 0 0 0 483.3 18.7 A 9.878 9.878 0 0 0 483.547 20.976 A 6.603 6.603 0 0 0 485.3 24.2 Q 487.167 26.068 490.211 27.325 A 22.013 22.013 0 0 0 490.65 27.5 A 90.339 90.339 0 0 0 494.857 29.009 A 113.067 113.067 0 0 0 498 30 Q 502.2 31.3 506.2 32.8 Q 510.2 34.3 513.45 36.6 Q 516.7 38.9 518.7 42.35 Q 520.497 45.45 520.679 49.962 A 25.693 25.693 0 0 1 520.7 51 A 20.822 20.822 0 0 1 519.253 58.8 A 19.828 19.828 0 0 1 518.1 61.2 A 18.155 18.155 0 0 1 512.493 67.239 A 23.027 23.027 0 0 1 510.25 68.6 A 22.156 22.156 0 0 1 504.746 70.61 Q 502.159 71.203 499.152 71.351 A 41.703 41.703 0 0 1 497.1 71.4 A 36.323 36.323 0 0 1 490.561 70.836 A 28.753 28.753 0 0 1 485.4 69.4 A 25.245 25.245 0 0 1 480.397 66.838 A 20.65 20.65 0 0 1 476.85 63.85 Q 473.5 60.3 472.4 55.6 Z M 274.7 0.7 L 284.7 0.7 L 284.7 62.3 L 316.7 62.3 L 316.7 70.7 L 274.7 70.7 L 274.7 0.7 Z M 148 0.7 L 174 0.7 Q 180.495 0.7 185.183 2.445 A 20.303 20.303 0 0 1 187.65 3.55 A 21.379 21.379 0 0 1 192.442 6.974 A 17.846 17.846 0 0 1 195.65 11.1 A 20.74 20.74 0 0 1 198.277 20.523 A 24.738 24.738 0 0 1 198.3 21.6 Q 198.3 25.4 197 29.1 A 18.559 18.559 0 0 1 193.33 35.273 A 21.589 21.589 0 0 1 192.8 35.85 A 18.095 18.095 0 0 1 188.491 39.155 A 23.701 23.701 0 0 1 185.25 40.65 A 25.584 25.584 0 0 1 180.484 41.907 Q 178.148 42.3 175.481 42.38 A 46.11 46.11 0 0 1 174.1 42.4 L 158 42.4 L 158 70.7 L 148 70.7 L 148 0.7 Z M 174 9.1 L 158 9.1 L 158 34 L 174.1 34 A 25.602 25.602 0 0 0 177.256 33.817 Q 178.924 33.61 180.319 33.167 A 12.3 12.3 0 0 0 182.1 32.45 Q 185.2 30.9 186.7 28.1 A 12.518 12.518 0 0 0 188.023 24.038 A 16.203 16.203 0 0 0 188.2 21.6 A 15.474 15.474 0 0 0 187.722 17.649 A 11.16 11.16 0 0 0 184.8 12.5 A 10.242 10.242 0 0 0 181.059 10.176 Q 179.433 9.572 177.407 9.307 A 26.333 26.333 0 0 0 174 9.1 Z M 169.8 39 L 180.4 39 L 199.7 70.7 L 188.4 70.7 L 169.8 39 Z" vector-effect="non-scaling-stroke"/></g></svg>